<?xml version="1.0" encoding="utf-8"?>
<!DOCTYPE svg PUBLIC "-//W3C//DTD SVG 20010904//EN" "http://www.w3.org/TR/2001/REC-SVG-20010904/DTD/svg10.dtd">
<svg xmlns="http://www.w3.org/2000/svg" xml:space="preserve" xmlns:xlink="http://www.w3.org/1999/xlink" width="990" height="990" viewBox="0 0 990 990">
<defs>
<mask id="qrmask"><g fill="#ffffff">
<g transform="translate(220,44) scale(3.6666666666667)"><rect width="6" height="6"/></g>
<g transform="translate(242,44) scale(3.6666666666667)"><rect width="6" height="6"/></g>
<g transform="translate(264,44) scale(3.6666666666667)"><rect width="6" height="6"/></g>
<g transform="translate(308,44) scale(3.6666666666667)"><rect width="6" height="6"/></g>
<g transform="translate(330,44) scale(3.6666666666667)"><rect width="6" height="6"/></g>
<g transform="translate(418,44) scale(3.6666666666667)"><rect width="6" height="6"/></g>
<g transform="translate(440,44) scale(3.6666666666667)"><rect width="6" height="6"/></g>
<g transform="translate(462,44) scale(3.6666666666667)"><rect width="6" height="6"/></g>
<g transform="translate(484,44) scale(3.6666666666667)"><rect width="6" height="6"/></g>
<g transform="translate(506,44) scale(3.6666666666667)"><rect width="6" height="6"/></g>
<g transform="translate(594,44) scale(3.6666666666667)"><rect width="6" height="6"/></g>
<g transform="translate(704,44) scale(3.6666666666667)"><rect width="6" height="6"/></g>
<g transform="translate(726,44) scale(3.6666666666667)"><rect width="6" height="6"/></g>
<g transform="translate(748,44) scale(3.6666666666667)"><rect width="6" height="6"/></g>
<g transform="translate(220,66) scale(3.6666666666667)"><rect width="6" height="6"/></g>
<g transform="translate(242,66) scale(3.6666666666667)"><rect width="6" height="6"/></g>
<g transform="translate(308,66) scale(3.6666666666667)"><rect width="6" height="6"/></g>
<g transform="translate(330,66) scale(3.6666666666667)"><rect width="6" height="6"/></g>
<g transform="translate(374,66) scale(3.6666666666667)"><rect width="6" height="6"/></g>
<g transform="translate(418,66) scale(3.6666666666667)"><rect width="6" height="6"/></g>
<g transform="translate(462,66) scale(3.6666666666667)"><rect width="6" height="6"/></g>
<g transform="translate(484,66) scale(3.6666666666667)"><rect width="6" height="6"/></g>
<g transform="translate(572,66) scale(3.6666666666667)"><rect width="6" height="6"/></g>
<g transform="translate(594,66) scale(3.6666666666667)"><rect width="6" height="6"/></g>
<g transform="translate(616,66) scale(3.6666666666667)"><rect width="6" height="6"/></g>
<g transform="translate(638,66) scale(3.6666666666667)"><rect width="6" height="6"/></g>
<g transform="translate(660,66) scale(3.6666666666667)"><rect width="6" height="6"/></g>
<g transform="translate(704,66) scale(3.6666666666667)"><rect width="6" height="6"/></g>
<g transform="translate(220,88) scale(3.6666666666667)"><rect width="6" height="6"/></g>
<g transform="translate(308,88) scale(3.6666666666667)"><rect width="6" height="6"/></g>
<g transform="translate(352,88) scale(3.6666666666667)"><rect width="6" height="6"/></g>
<g transform="translate(440,88) scale(3.6666666666667)"><rect width="6" height="6"/></g>
<g transform="translate(484,88) scale(3.6666666666667)"><rect width="6" height="6"/></g>
<g transform="translate(506,88) scale(3.6666666666667)"><rect width="6" height="6"/></g>
<g transform="translate(528,88) scale(3.6666666666667)"><rect width="6" height="6"/></g>
<g transform="translate(572,88) scale(3.6666666666667)"><rect width="6" height="6"/></g>
<g transform="translate(594,88) scale(3.6666666666667)"><rect width="6" height="6"/></g>
<g transform="translate(748,88) scale(3.6666666666667)"><rect width="6" height="6"/></g>
<g transform="translate(242,110) scale(3.6666666666667)"><rect width="6" height="6"/></g>
<g transform="translate(286,110) scale(3.6666666666667)"><rect width="6" height="6"/></g>
<g transform="translate(330,110) scale(3.6666666666667)"><rect width="6" height="6"/></g>
<g transform="translate(352,110) scale(3.6666666666667)"><rect width="6" height="6"/></g>
<g transform="translate(374,110) scale(3.6666666666667)"><rect width="6" height="6"/></g>
<g transform="translate(396,110) scale(3.6666666666667)"><rect width="6" height="6"/></g>
<g transform="translate(440,110) scale(3.6666666666667)"><rect width="6" height="6"/></g>
<g transform="translate(462,110) scale(3.6666666666667)"><rect width="6" height="6"/></g>
<g transform="translate(484,110) scale(3.6666666666667)"><rect width="6" height="6"/></g>
<g transform="translate(506,110) scale(3.6666666666667)"><rect width="6" height="6"/></g>
<g transform="translate(550,110) scale(3.6666666666667)"><rect width="6" height="6"/></g>
<g transform="translate(572,110) scale(3.6666666666667)"><rect width="6" height="6"/></g>
<g transform="translate(616,110) scale(3.6666666666667)"><rect width="6" height="6"/></g>
<g transform="translate(638,110) scale(3.6666666666667)"><rect width="6" height="6"/></g>
<g transform="translate(704,110) scale(3.6666666666667)"><rect width="6" height="6"/></g>
<g transform="translate(726,110) scale(3.6666666666667)"><rect width="6" height="6"/></g>
<g transform="translate(748,110) scale(3.6666666666667)"><rect width="6" height="6"/></g>
<g transform="translate(242,132) scale(3.6666666666667)"><rect width="6" height="6"/></g>
<g transform="translate(264,132) scale(3.6666666666667)"><rect width="6" height="6"/></g>
<g transform="translate(286,132) scale(3.6666666666667)"><rect width="6" height="6"/></g>
<g transform="translate(308,132) scale(3.6666666666667)"><rect width="6" height="6"/></g>
<g transform="translate(330,132) scale(3.6666666666667)"><rect width="6" height="6"/></g>
<g transform="translate(374,132) scale(3.6666666666667)"><rect width="6" height="6"/></g>
<g transform="translate(418,132) scale(3.6666666666667)"><rect width="6" height="6"/></g>
<g transform="translate(462,132) scale(3.6666666666667)"><rect width="6" height="6"/></g>
<g transform="translate(506,132) scale(3.6666666666667)"><rect width="6" height="6"/></g>
<g transform="translate(594,132) scale(3.6666666666667)"><rect width="6" height="6"/></g>
<g transform="translate(660,132) scale(3.6666666666667)"><rect width="6" height="6"/></g>
<g transform="translate(726,132) scale(3.6666666666667)"><rect width="6" height="6"/></g>
<g transform="translate(748,132) scale(3.6666666666667)"><rect width="6" height="6"/></g>
<g transform="translate(220,154) scale(3.6666666666667)"><rect width="6" height="6"/></g>
<g transform="translate(242,154) scale(3.6666666666667)"><rect width="6" height="6"/></g>
<g transform="translate(286,154) scale(3.6666666666667)"><rect width="6" height="6"/></g>
<g transform="translate(396,154) scale(3.6666666666667)"><rect width="6" height="6"/></g>
<g transform="translate(418,154) scale(3.6666666666667)"><rect width="6" height="6"/></g>
<g transform="translate(440,154) scale(3.6666666666667)"><rect width="6" height="6"/></g>
<g transform="translate(462,154) scale(3.6666666666667)"><rect width="6" height="6"/></g>
<g transform="translate(484,154) scale(3.6666666666667)"><rect width="6" height="6"/></g>
<g transform="translate(506,154) scale(3.6666666666667)"><rect width="6" height="6"/></g>
<g transform="translate(528,154) scale(3.6666666666667)"><rect width="6" height="6"/></g>
<g transform="translate(550,154) scale(3.6666666666667)"><rect width="6" height="6"/></g>
<g transform="translate(594,154) scale(3.6666666666667)"><rect width="6" height="6"/></g>
<g transform="translate(616,154) scale(3.6666666666667)"><rect width="6" height="6"/></g>
<g transform="translate(638,154) scale(3.6666666666667)"><rect width="6" height="6"/></g>
<g transform="translate(682,154) scale(3.6666666666667)"><rect width="6" height="6"/></g>
<g transform="translate(748,154) scale(3.6666666666667)"><rect width="6" height="6"/></g>
<g transform="translate(220,176) scale(3.6666666666667)"><rect width="6" height="6"/></g>
<g transform="translate(264,176) scale(3.6666666666667)"><rect width="6" height="6"/></g>
<g transform="translate(308,176) scale(3.6666666666667)"><rect width="6" height="6"/></g>
<g transform="translate(352,176) scale(3.6666666666667)"><rect width="6" height="6"/></g>
<g transform="translate(396,176) scale(3.6666666666667)"><rect width="6" height="6"/></g>
<g transform="translate(440,176) scale(3.6666666666667)"><rect width="6" height="6"/></g>
<g transform="translate(484,176) scale(3.6666666666667)"><rect width="6" height="6"/></g>
<g transform="translate(528,176) scale(3.6666666666667)"><rect width="6" height="6"/></g>
<g transform="translate(572,176) scale(3.6666666666667)"><rect width="6" height="6"/></g>
<g transform="translate(616,176) scale(3.6666666666667)"><rect width="6" height="6"/></g>
<g transform="translate(660,176) scale(3.6666666666667)"><rect width="6" height="6"/></g>
<g transform="translate(704,176) scale(3.6666666666667)"><rect width="6" height="6"/></g>
<g transform="translate(748,176) scale(3.6666666666667)"><rect width="6" height="6"/></g>
<g transform="translate(220,198) scale(3.6666666666667)"><rect width="6" height="6"/></g>
<g transform="translate(308,198) scale(3.6666666666667)"><rect width="6" height="6"/></g>
<g transform="translate(330,198) scale(3.6666666666667)"><rect width="6" height="6"/></g>
<g transform="translate(374,198) scale(3.6666666666667)"><rect width="6" height="6"/></g>
<g transform="translate(396,198) scale(3.6666666666667)"><rect width="6" height="6"/></g>
<g transform="translate(572,198) scale(3.6666666666667)"><rect width="6" height="6"/></g>
<g transform="translate(616,198) scale(3.6666666666667)"><rect width="6" height="6"/></g>
<g transform="translate(638,198) scale(3.6666666666667)"><rect width="6" height="6"/></g>
<g transform="translate(660,198) scale(3.6666666666667)"><rect width="6" height="6"/></g>
<g transform="translate(704,198) scale(3.6666666666667)"><rect width="6" height="6"/></g>
<g transform="translate(88,220) scale(3.6666666666667)"><rect width="6" height="6"/></g>
<g transform="translate(110,220) scale(3.6666666666667)"><rect width="6" height="6"/></g>
<g transform="translate(132,220) scale(3.6666666666667)"><rect width="6" height="6"/></g>
<g transform="translate(176,220) scale(3.6666666666667)"><rect width="6" height="6"/></g>
<g transform="translate(220,220) scale(3.6666666666667)"><rect width="6" height="6"/></g>
<g transform="translate(264,220) scale(3.6666666666667)"><rect width="6" height="6"/></g>
<g transform="translate(308,220) scale(3.6666666666667)"><rect width="6" height="6"/></g>
<g transform="translate(330,220) scale(3.6666666666667)"><rect width="6" height="6"/></g>
<g transform="translate(396,220) scale(3.6666666666667)"><rect width="6" height="6"/></g>
<g transform="translate(440,220) scale(3.6666666666667)"><rect width="6" height="6"/></g>
<g transform="translate(528,220) scale(3.6666666666667)"><rect width="6" height="6"/></g>
<g transform="translate(594,220) scale(3.6666666666667)"><rect width="6" height="6"/></g>
<g transform="translate(616,220) scale(3.6666666666667)"><rect width="6" height="6"/></g>
<g transform="translate(638,220) scale(3.6666666666667)"><rect width="6" height="6"/></g>
<g transform="translate(682,220) scale(3.6666666666667)"><rect width="6" height="6"/></g>
<g transform="translate(770,220) scale(3.6666666666667)"><rect width="6" height="6"/></g>
<g transform="translate(792,220) scale(3.6666666666667)"><rect width="6" height="6"/></g>
<g transform="translate(814,220) scale(3.6666666666667)"><rect width="6" height="6"/></g>
<g transform="translate(880,220) scale(3.6666666666667)"><rect width="6" height="6"/></g>
<g transform="translate(902,220) scale(3.6666666666667)"><rect width="6" height="6"/></g>
<g transform="translate(924,220) scale(3.6666666666667)"><rect width="6" height="6"/></g>
<g transform="translate(44,242) scale(3.6666666666667)"><rect width="6" height="6"/></g>
<g transform="translate(132,242) scale(3.6666666666667)"><rect width="6" height="6"/></g>
<g transform="translate(154,242) scale(3.6666666666667)"><rect width="6" height="6"/></g>
<g transform="translate(242,242) scale(3.6666666666667)"><rect width="6" height="6"/></g>
<g transform="translate(264,242) scale(3.6666666666667)"><rect width="6" height="6"/></g>
<g transform="translate(308,242) scale(3.6666666666667)"><rect width="6" height="6"/></g>
<g transform="translate(396,242) scale(3.6666666666667)"><rect width="6" height="6"/></g>
<g transform="translate(418,242) scale(3.6666666666667)"><rect width="6" height="6"/></g>
<g transform="translate(484,242) scale(3.6666666666667)"><rect width="6" height="6"/></g>
<g transform="translate(594,242) scale(3.6666666666667)"><rect width="6" height="6"/></g>
<g transform="translate(660,242) scale(3.6666666666667)"><rect width="6" height="6"/></g>
<g transform="translate(704,242) scale(3.6666666666667)"><rect width="6" height="6"/></g>
<g transform="translate(726,242) scale(3.6666666666667)"><rect width="6" height="6"/></g>
<g transform="translate(748,242) scale(3.6666666666667)"><rect width="6" height="6"/></g>
<g transform="translate(770,242) scale(3.6666666666667)"><rect width="6" height="6"/></g>
<g transform="translate(792,242) scale(3.6666666666667)"><rect width="6" height="6"/></g>
<g transform="translate(836,242) scale(3.6666666666667)"><rect width="6" height="6"/></g>
<g transform="translate(880,242) scale(3.6666666666667)"><rect width="6" height="6"/></g>
<g transform="translate(902,242) scale(3.6666666666667)"><rect width="6" height="6"/></g>
<g transform="translate(924,242) scale(3.6666666666667)"><rect width="6" height="6"/></g>
<g transform="translate(44,264) scale(3.6666666666667)"><rect width="6" height="6"/></g>
<g transform="translate(88,264) scale(3.6666666666667)"><rect width="6" height="6"/></g>
<g transform="translate(132,264) scale(3.6666666666667)"><rect width="6" height="6"/></g>
<g transform="translate(176,264) scale(3.6666666666667)"><rect width="6" height="6"/></g>
<g transform="translate(198,264) scale(3.6666666666667)"><rect width="6" height="6"/></g>
<g transform="translate(286,264) scale(3.6666666666667)"><rect width="6" height="6"/></g>
<g transform="translate(396,264) scale(3.6666666666667)"><rect width="6" height="6"/></g>
<g transform="translate(440,264) scale(3.6666666666667)"><rect width="6" height="6"/></g>
<g transform="translate(462,264) scale(3.6666666666667)"><rect width="6" height="6"/></g>
<g transform="translate(484,264) scale(3.6666666666667)"><rect width="6" height="6"/></g>
<g transform="translate(506,264) scale(3.6666666666667)"><rect width="6" height="6"/></g>
<g transform="translate(550,264) scale(3.6666666666667)"><rect width="6" height="6"/></g>
<g transform="translate(572,264) scale(3.6666666666667)"><rect width="6" height="6"/></g>
<g transform="translate(594,264) scale(3.6666666666667)"><rect width="6" height="6"/></g>
<g transform="translate(638,264) scale(3.6666666666667)"><rect width="6" height="6"/></g>
<g transform="translate(660,264) scale(3.6666666666667)"><rect width="6" height="6"/></g>
<g transform="translate(682,264) scale(3.6666666666667)"><rect width="6" height="6"/></g>
<g transform="translate(704,264) scale(3.6666666666667)"><rect width="6" height="6"/></g>
<g transform="translate(748,264) scale(3.6666666666667)"><rect width="6" height="6"/></g>
<g transform="translate(792,264) scale(3.6666666666667)"><rect width="6" height="6"/></g>
<g transform="translate(814,264) scale(3.6666666666667)"><rect width="6" height="6"/></g>
<g transform="translate(44,286) scale(3.6666666666667)"><rect width="6" height="6"/></g>
<g transform="translate(88,286) scale(3.6666666666667)"><rect width="6" height="6"/></g>
<g transform="translate(132,286) scale(3.6666666666667)"><rect width="6" height="6"/></g>
<g transform="translate(154,286) scale(3.6666666666667)"><rect width="6" height="6"/></g>
<g transform="translate(198,286) scale(3.6666666666667)"><rect width="6" height="6"/></g>
<g transform="translate(374,286) scale(3.6666666666667)"><rect width="6" height="6"/></g>
<g transform="translate(396,286) scale(3.6666666666667)"><rect width="6" height="6"/></g>
<g transform="translate(418,286) scale(3.6666666666667)"><rect width="6" height="6"/></g>
<g transform="translate(440,286) scale(3.6666666666667)"><rect width="6" height="6"/></g>
<g transform="translate(462,286) scale(3.6666666666667)"><rect width="6" height="6"/></g>
<g transform="translate(484,286) scale(3.6666666666667)"><rect width="6" height="6"/></g>
<g transform="translate(506,286) scale(3.6666666666667)"><rect width="6" height="6"/></g>
<g transform="translate(550,286) scale(3.6666666666667)"><rect width="6" height="6"/></g>
<g transform="translate(572,286) scale(3.6666666666667)"><rect width="6" height="6"/></g>
<g transform="translate(616,286) scale(3.6666666666667)"><rect width="6" height="6"/></g>
<g transform="translate(638,286) scale(3.6666666666667)"><rect width="6" height="6"/></g>
<g transform="translate(660,286) scale(3.6666666666667)"><rect width="6" height="6"/></g>
<g transform="translate(726,286) scale(3.6666666666667)"><rect width="6" height="6"/></g>
<g transform="translate(748,286) scale(3.6666666666667)"><rect width="6" height="6"/></g>
<g transform="translate(770,286) scale(3.6666666666667)"><rect width="6" height="6"/></g>
<g transform="translate(792,286) scale(3.6666666666667)"><rect width="6" height="6"/></g>
<g transform="translate(814,286) scale(3.6666666666667)"><rect width="6" height="6"/></g>
<g transform="translate(858,286) scale(3.6666666666667)"><rect width="6" height="6"/></g>
<g transform="translate(902,286) scale(3.6666666666667)"><rect width="6" height="6"/></g>
<g transform="translate(44,308) scale(3.6666666666667)"><rect width="6" height="6"/></g>
<g transform="translate(110,308) scale(3.6666666666667)"><rect width="6" height="6"/></g>
<g transform="translate(154,308) scale(3.6666666666667)"><rect width="6" height="6"/></g>
<g transform="translate(176,308) scale(3.6666666666667)"><rect width="6" height="6"/></g>
<g transform="translate(198,308) scale(3.6666666666667)"><rect width="6" height="6"/></g>
<g transform="translate(220,308) scale(3.6666666666667)"><rect width="6" height="6"/></g>
<g transform="translate(286,308) scale(3.6666666666667)"><rect width="6" height="6"/></g>
<g transform="translate(308,308) scale(3.6666666666667)"><rect width="6" height="6"/></g>
<g transform="translate(330,308) scale(3.6666666666667)"><rect width="6" height="6"/></g>
<g transform="translate(374,308) scale(3.6666666666667)"><rect width="6" height="6"/></g>
<g transform="translate(396,308) scale(3.6666666666667)"><rect width="6" height="6"/></g>
<g transform="translate(462,308) scale(3.6666666666667)"><rect width="6" height="6"/></g>
<g transform="translate(484,308) scale(3.6666666666667)"><rect width="6" height="6"/></g>
<g transform="translate(528,308) scale(3.6666666666667)"><rect width="6" height="6"/></g>
<g transform="translate(550,308) scale(3.6666666666667)"><rect width="6" height="6"/></g>
<g transform="translate(572,308) scale(3.6666666666667)"><rect width="6" height="6"/></g>
<g transform="translate(594,308) scale(3.6666666666667)"><rect width="6" height="6"/></g>
<g transform="translate(616,308) scale(3.6666666666667)"><rect width="6" height="6"/></g>
<g transform="translate(638,308) scale(3.6666666666667)"><rect width="6" height="6"/></g>
<g transform="translate(660,308) scale(3.6666666666667)"><rect width="6" height="6"/></g>
<g transform="translate(682,308) scale(3.6666666666667)"><rect width="6" height="6"/></g>
<g transform="translate(704,308) scale(3.6666666666667)"><rect width="6" height="6"/></g>
<g transform="translate(726,308) scale(3.6666666666667)"><rect width="6" height="6"/></g>
<g transform="translate(858,308) scale(3.6666666666667)"><rect width="6" height="6"/></g>
<g transform="translate(880,308) scale(3.6666666666667)"><rect width="6" height="6"/></g>
<g transform="translate(110,330) scale(3.6666666666667)"><rect width="6" height="6"/></g>
<g transform="translate(132,330) scale(3.6666666666667)"><rect width="6" height="6"/></g>
<g transform="translate(220,330) scale(3.6666666666667)"><rect width="6" height="6"/></g>
<g transform="translate(264,330) scale(3.6666666666667)"><rect width="6" height="6"/></g>
<g transform="translate(352,330) scale(3.6666666666667)"><rect width="6" height="6"/></g>
<g transform="translate(396,330) scale(3.6666666666667)"><rect width="6" height="6"/></g>
<g transform="translate(418,330) scale(3.6666666666667)"><rect width="6" height="6"/></g>
<g transform="translate(440,330) scale(3.6666666666667)"><rect width="6" height="6"/></g>
<g transform="translate(484,330) scale(3.6666666666667)"><rect width="6" height="6"/></g>
<g transform="translate(550,330) scale(3.6666666666667)"><rect width="6" height="6"/></g>
<g transform="translate(616,330) scale(3.6666666666667)"><rect width="6" height="6"/></g>
<g transform="translate(638,330) scale(3.6666666666667)"><rect width="6" height="6"/></g>
<g transform="translate(682,330) scale(3.6666666666667)"><rect width="6" height="6"/></g>
<g transform="translate(704,330) scale(3.6666666666667)"><rect width="6" height="6"/></g>
<g transform="translate(748,330) scale(3.6666666666667)"><rect width="6" height="6"/></g>
<g transform="translate(770,330) scale(3.6666666666667)"><rect width="6" height="6"/></g>
<g transform="translate(792,330) scale(3.6666666666667)"><rect width="6" height="6"/></g>
<g transform="translate(814,330) scale(3.6666666666667)"><rect width="6" height="6"/></g>
<g transform="translate(836,330) scale(3.6666666666667)"><rect width="6" height="6"/></g>
<g transform="translate(858,330) scale(3.6666666666667)"><rect width="6" height="6"/></g>
<g transform="translate(902,330) scale(3.6666666666667)"><rect width="6" height="6"/></g>
<g transform="translate(924,330) scale(3.6666666666667)"><rect width="6" height="6"/></g>
<g transform="translate(66,352) scale(3.6666666666667)"><rect width="6" height="6"/></g>
<g transform="translate(110,352) scale(3.6666666666667)"><rect width="6" height="6"/></g>
<g transform="translate(154,352) scale(3.6666666666667)"><rect width="6" height="6"/></g>
<g transform="translate(176,352) scale(3.6666666666667)"><rect width="6" height="6"/></g>
<g transform="translate(220,352) scale(3.6666666666667)"><rect width="6" height="6"/></g>
<g transform="translate(242,352) scale(3.6666666666667)"><rect width="6" height="6"/></g>
<g transform="translate(264,352) scale(3.6666666666667)"><rect width="6" height="6"/></g>
<g transform="translate(308,352) scale(3.6666666666667)"><rect width="6" height="6"/></g>
<g transform="translate(396,352) scale(3.6666666666667)"><rect width="6" height="6"/></g>
<g transform="translate(462,352) scale(3.6666666666667)"><rect width="6" height="6"/></g>
<g transform="translate(484,352) scale(3.6666666666667)"><rect width="6" height="6"/></g>
<g transform="translate(506,352) scale(3.6666666666667)"><rect width="6" height="6"/></g>
<g transform="translate(616,352) scale(3.6666666666667)"><rect width="6" height="6"/></g>
<g transform="translate(638,352) scale(3.6666666666667)"><rect width="6" height="6"/></g>
<g transform="translate(660,352) scale(3.6666666666667)"><rect width="6" height="6"/></g>
<g transform="translate(704,352) scale(3.6666666666667)"><rect width="6" height="6"/></g>
<g transform="translate(726,352) scale(3.6666666666667)"><rect width="6" height="6"/></g>
<g transform="translate(770,352) scale(3.6666666666667)"><rect width="6" height="6"/></g>
<g transform="translate(814,352) scale(3.6666666666667)"><rect width="6" height="6"/></g>
<g transform="translate(836,352) scale(3.6666666666667)"><rect width="6" height="6"/></g>
<g transform="translate(858,352) scale(3.6666666666667)"><rect width="6" height="6"/></g>
<g transform="translate(66,374) scale(3.6666666666667)"><rect width="6" height="6"/></g>
<g transform="translate(88,374) scale(3.6666666666667)"><rect width="6" height="6"/></g>
<g transform="translate(198,374) scale(3.6666666666667)"><rect width="6" height="6"/></g>
<g transform="translate(220,374) scale(3.6666666666667)"><rect width="6" height="6"/></g>
<g transform="translate(242,374) scale(3.6666666666667)"><rect width="6" height="6"/></g>
<g transform="translate(330,374) scale(3.6666666666667)"><rect width="6" height="6"/></g>
<g transform="translate(352,374) scale(3.6666666666667)"><rect width="6" height="6"/></g>
<g transform="translate(374,374) scale(3.6666666666667)"><rect width="6" height="6"/></g>
<g transform="translate(418,374) scale(3.6666666666667)"><rect width="6" height="6"/></g>
<g transform="translate(462,374) scale(3.6666666666667)"><rect width="6" height="6"/></g>
<g transform="translate(484,374) scale(3.6666666666667)"><rect width="6" height="6"/></g>
<g transform="translate(528,374) scale(3.6666666666667)"><rect width="6" height="6"/></g>
<g transform="translate(572,374) scale(3.6666666666667)"><rect width="6" height="6"/></g>
<g transform="translate(594,374) scale(3.6666666666667)"><rect width="6" height="6"/></g>
<g transform="translate(616,374) scale(3.6666666666667)"><rect width="6" height="6"/></g>
<g transform="translate(638,374) scale(3.6666666666667)"><rect width="6" height="6"/></g>
<g transform="translate(704,374) scale(3.6666666666667)"><rect width="6" height="6"/></g>
<g transform="translate(726,374) scale(3.6666666666667)"><rect width="6" height="6"/></g>
<g transform="translate(748,374) scale(3.6666666666667)"><rect width="6" height="6"/></g>
<g transform="translate(792,374) scale(3.6666666666667)"><rect width="6" height="6"/></g>
<g transform="translate(814,374) scale(3.6666666666667)"><rect width="6" height="6"/></g>
<g transform="translate(858,374) scale(3.6666666666667)"><rect width="6" height="6"/></g>
<g transform="translate(44,396) scale(3.6666666666667)"><rect width="6" height="6"/></g>
<g transform="translate(110,396) scale(3.6666666666667)"><rect width="6" height="6"/></g>
<g transform="translate(132,396) scale(3.6666666666667)"><rect width="6" height="6"/></g>
<g transform="translate(176,396) scale(3.6666666666667)"><rect width="6" height="6"/></g>
<g transform="translate(242,396) scale(3.6666666666667)"><rect width="6" height="6"/></g>
<g transform="translate(352,396) scale(3.6666666666667)"><rect width="6" height="6"/></g>
<g transform="translate(374,396) scale(3.6666666666667)"><rect width="6" height="6"/></g>
<g transform="translate(418,396) scale(3.6666666666667)"><rect width="6" height="6"/></g>
<g transform="translate(440,396) scale(3.6666666666667)"><rect width="6" height="6"/></g>
<g transform="translate(462,396) scale(3.6666666666667)"><rect width="6" height="6"/></g>
<g transform="translate(572,396) scale(3.6666666666667)"><rect width="6" height="6"/></g>
<g transform="translate(594,396) scale(3.6666666666667)"><rect width="6" height="6"/></g>
<g transform="translate(616,396) scale(3.6666666666667)"><rect width="6" height="6"/></g>
<g transform="translate(638,396) scale(3.6666666666667)"><rect width="6" height="6"/></g>
<g transform="translate(660,396) scale(3.6666666666667)"><rect width="6" height="6"/></g>
<g transform="translate(682,396) scale(3.6666666666667)"><rect width="6" height="6"/></g>
<g transform="translate(726,396) scale(3.6666666666667)"><rect width="6" height="6"/></g>
<g transform="translate(770,396) scale(3.6666666666667)"><rect width="6" height="6"/></g>
<g transform="translate(814,396) scale(3.6666666666667)"><rect width="6" height="6"/></g>
<g transform="translate(880,396) scale(3.6666666666667)"><rect width="6" height="6"/></g>
<g transform="translate(44,418) scale(3.6666666666667)"><rect width="6" height="6"/></g>
<g transform="translate(66,418) scale(3.6666666666667)"><rect width="6" height="6"/></g>
<g transform="translate(88,418) scale(3.6666666666667)"><rect width="6" height="6"/></g>
<g transform="translate(110,418) scale(3.6666666666667)"><rect width="6" height="6"/></g>
<g transform="translate(242,418) scale(3.6666666666667)"><rect width="6" height="6"/></g>
<g transform="translate(308,418) scale(3.6666666666667)"><rect width="6" height="6"/></g>
<g transform="translate(330,418) scale(3.6666666666667)"><rect width="6" height="6"/></g>
<g transform="translate(374,418) scale(3.6666666666667)"><rect width="6" height="6"/></g>
<g transform="translate(396,418) scale(3.6666666666667)"><rect width="6" height="6"/></g>
<g transform="translate(440,418) scale(3.6666666666667)"><rect width="6" height="6"/></g>
<g transform="translate(462,418) scale(3.6666666666667)"><rect width="6" height="6"/></g>
<g transform="translate(506,418) scale(3.6666666666667)"><rect width="6" height="6"/></g>
<g transform="translate(550,418) scale(3.6666666666667)"><rect width="6" height="6"/></g>
<g transform="translate(572,418) scale(3.6666666666667)"><rect width="6" height="6"/></g>
<g transform="translate(660,418) scale(3.6666666666667)"><rect width="6" height="6"/></g>
<g transform="translate(682,418) scale(3.6666666666667)"><rect width="6" height="6"/></g>
<g transform="translate(704,418) scale(3.6666666666667)"><rect width="6" height="6"/></g>
<g transform="translate(726,418) scale(3.6666666666667)"><rect width="6" height="6"/></g>
<g transform="translate(748,418) scale(3.6666666666667)"><rect width="6" height="6"/></g>
<g transform="translate(792,418) scale(3.6666666666667)"><rect width="6" height="6"/></g>
<g transform="translate(814,418) scale(3.6666666666667)"><rect width="6" height="6"/></g>
<g transform="translate(836,418) scale(3.6666666666667)"><rect width="6" height="6"/></g>
<g transform="translate(902,418) scale(3.6666666666667)"><rect width="6" height="6"/></g>
<g transform="translate(924,418) scale(3.6666666666667)"><rect width="6" height="6"/></g>
<g transform="translate(44,440) scale(3.6666666666667)"><rect width="6" height="6"/></g>
<g transform="translate(66,440) scale(3.6666666666667)"><rect width="6" height="6"/></g>
<g transform="translate(88,440) scale(3.6666666666667)"><rect width="6" height="6"/></g>
<g transform="translate(132,440) scale(3.6666666666667)"><rect width="6" height="6"/></g>
<g transform="translate(176,440) scale(3.6666666666667)"><rect width="6" height="6"/></g>
<g transform="translate(198,440) scale(3.6666666666667)"><rect width="6" height="6"/></g>
<g transform="translate(220,440) scale(3.6666666666667)"><rect width="6" height="6"/></g>
<g transform="translate(242,440) scale(3.6666666666667)"><rect width="6" height="6"/></g>
<g transform="translate(286,440) scale(3.6666666666667)"><rect width="6" height="6"/></g>
<g transform="translate(330,440) scale(3.6666666666667)"><rect width="6" height="6"/></g>
<g transform="translate(374,440) scale(3.6666666666667)"><rect width="6" height="6"/></g>
<g transform="translate(462,440) scale(3.6666666666667)"><rect width="6" height="6"/></g>
<g transform="translate(528,440) scale(3.6666666666667)"><rect width="6" height="6"/></g>
<g transform="translate(550,440) scale(3.6666666666667)"><rect width="6" height="6"/></g>
<g transform="translate(572,440) scale(3.6666666666667)"><rect width="6" height="6"/></g>
<g transform="translate(594,440) scale(3.6666666666667)"><rect width="6" height="6"/></g>
<g transform="translate(616,440) scale(3.6666666666667)"><rect width="6" height="6"/></g>
<g transform="translate(638,440) scale(3.6666666666667)"><rect width="6" height="6"/></g>
<g transform="translate(660,440) scale(3.6666666666667)"><rect width="6" height="6"/></g>
<g transform="translate(682,440) scale(3.6666666666667)"><rect width="6" height="6"/></g>
<g transform="translate(748,440) scale(3.6666666666667)"><rect width="6" height="6"/></g>
<g transform="translate(792,440) scale(3.6666666666667)"><rect width="6" height="6"/></g>
<g transform="translate(836,440) scale(3.6666666666667)"><rect width="6" height="6"/></g>
<g transform="translate(880,440) scale(3.6666666666667)"><rect width="6" height="6"/></g>
<g transform="translate(88,462) scale(3.6666666666667)"><rect width="6" height="6"/></g>
<g transform="translate(154,462) scale(3.6666666666667)"><rect width="6" height="6"/></g>
<g transform="translate(198,462) scale(3.6666666666667)"><rect width="6" height="6"/></g>
<g transform="translate(220,462) scale(3.6666666666667)"><rect width="6" height="6"/></g>
<g transform="translate(242,462) scale(3.6666666666667)"><rect width="6" height="6"/></g>
<g transform="translate(264,462) scale(3.6666666666667)"><rect width="6" height="6"/></g>
<g transform="translate(396,462) scale(3.6666666666667)"><rect width="6" height="6"/></g>
<g transform="translate(418,462) scale(3.6666666666667)"><rect width="6" height="6"/></g>
<g transform="translate(440,462) scale(3.6666666666667)"><rect width="6" height="6"/></g>
<g transform="translate(528,462) scale(3.6666666666667)"><rect width="6" height="6"/></g>
<g transform="translate(572,462) scale(3.6666666666667)"><rect width="6" height="6"/></g>
<g transform="translate(616,462) scale(3.6666666666667)"><rect width="6" height="6"/></g>
<g transform="translate(638,462) scale(3.6666666666667)"><rect width="6" height="6"/></g>
<g transform="translate(660,462) scale(3.6666666666667)"><rect width="6" height="6"/></g>
<g transform="translate(682,462) scale(3.6666666666667)"><rect width="6" height="6"/></g>
<g transform="translate(704,462) scale(3.6666666666667)"><rect width="6" height="6"/></g>
<g transform="translate(748,462) scale(3.6666666666667)"><rect width="6" height="6"/></g>
<g transform="translate(770,462) scale(3.6666666666667)"><rect width="6" height="6"/></g>
<g transform="translate(836,462) scale(3.6666666666667)"><rect width="6" height="6"/></g>
<g transform="translate(902,462) scale(3.6666666666667)"><rect width="6" height="6"/></g>
<g transform="translate(924,462) scale(3.6666666666667)"><rect width="6" height="6"/></g>
<g transform="translate(110,484) scale(3.6666666666667)"><rect width="6" height="6"/></g>
<g transform="translate(132,484) scale(3.6666666666667)"><rect width="6" height="6"/></g>
<g transform="translate(154,484) scale(3.6666666666667)"><rect width="6" height="6"/></g>
<g transform="translate(176,484) scale(3.6666666666667)"><rect width="6" height="6"/></g>
<g transform="translate(264,484) scale(3.6666666666667)"><rect width="6" height="6"/></g>
<g transform="translate(286,484) scale(3.6666666666667)"><rect width="6" height="6"/></g>
<g transform="translate(308,484) scale(3.6666666666667)"><rect width="6" height="6"/></g>
<g transform="translate(330,484) scale(3.6666666666667)"><rect width="6" height="6"/></g>
<g transform="translate(352,484) scale(3.6666666666667)"><rect width="6" height="6"/></g>
<g transform="translate(396,484) scale(3.6666666666667)"><rect width="6" height="6"/></g>
<g transform="translate(440,484) scale(3.6666666666667)"><rect width="6" height="6"/></g>
<g transform="translate(484,484) scale(3.6666666666667)"><rect width="6" height="6"/></g>
<g transform="translate(550,484) scale(3.6666666666667)"><rect width="6" height="6"/></g>
<g transform="translate(638,484) scale(3.6666666666667)"><rect width="6" height="6"/></g>
<g transform="translate(660,484) scale(3.6666666666667)"><rect width="6" height="6"/></g>
<g transform="translate(880,484) scale(3.6666666666667)"><rect width="6" height="6"/></g>
<g transform="translate(902,484) scale(3.6666666666667)"><rect width="6" height="6"/></g>
<g transform="translate(110,506) scale(3.6666666666667)"><rect width="6" height="6"/></g>
<g transform="translate(198,506) scale(3.6666666666667)"><rect width="6" height="6"/></g>
<g transform="translate(220,506) scale(3.6666666666667)"><rect width="6" height="6"/></g>
<g transform="translate(374,506) scale(3.6666666666667)"><rect width="6" height="6"/></g>
<g transform="translate(396,506) scale(3.6666666666667)"><rect width="6" height="6"/></g>
<g transform="translate(440,506) scale(3.6666666666667)"><rect width="6" height="6"/></g>
<g transform="translate(484,506) scale(3.6666666666667)"><rect width="6" height="6"/></g>
<g transform="translate(506,506) scale(3.6666666666667)"><rect width="6" height="6"/></g>
<g transform="translate(660,506) scale(3.6666666666667)"><rect width="6" height="6"/></g>
<g transform="translate(682,506) scale(3.6666666666667)"><rect width="6" height="6"/></g>
<g transform="translate(704,506) scale(3.6666666666667)"><rect width="6" height="6"/></g>
<g transform="translate(726,506) scale(3.6666666666667)"><rect width="6" height="6"/></g>
<g transform="translate(748,506) scale(3.6666666666667)"><rect width="6" height="6"/></g>
<g transform="translate(792,506) scale(3.6666666666667)"><rect width="6" height="6"/></g>
<g transform="translate(814,506) scale(3.6666666666667)"><rect width="6" height="6"/></g>
<g transform="translate(836,506) scale(3.6666666666667)"><rect width="6" height="6"/></g>
<g transform="translate(858,506) scale(3.6666666666667)"><rect width="6" height="6"/></g>
<g transform="translate(880,506) scale(3.6666666666667)"><rect width="6" height="6"/></g>
<g transform="translate(902,506) scale(3.6666666666667)"><rect width="6" height="6"/></g>
<g transform="translate(924,506) scale(3.6666666666667)"><rect width="6" height="6"/></g>
<g transform="translate(44,528) scale(3.6666666666667)"><rect width="6" height="6"/></g>
<g transform="translate(66,528) scale(3.6666666666667)"><rect width="6" height="6"/></g>
<g transform="translate(132,528) scale(3.6666666666667)"><rect width="6" height="6"/></g>
<g transform="translate(154,528) scale(3.6666666666667)"><rect width="6" height="6"/></g>
<g transform="translate(176,528) scale(3.6666666666667)"><rect width="6" height="6"/></g>
<g transform="translate(220,528) scale(3.6666666666667)"><rect width="6" height="6"/></g>
<g transform="translate(286,528) scale(3.6666666666667)"><rect width="6" height="6"/></g>
<g transform="translate(308,528) scale(3.6666666666667)"><rect width="6" height="6"/></g>
<g transform="translate(352,528) scale(3.6666666666667)"><rect width="6" height="6"/></g>
<g transform="translate(374,528) scale(3.6666666666667)"><rect width="6" height="6"/></g>
<g transform="translate(418,528) scale(3.6666666666667)"><rect width="6" height="6"/></g>
<g transform="translate(440,528) scale(3.6666666666667)"><rect width="6" height="6"/></g>
<g transform="translate(462,528) scale(3.6666666666667)"><rect width="6" height="6"/></g>
<g transform="translate(616,528) scale(3.6666666666667)"><rect width="6" height="6"/></g>
<g transform="translate(638,528) scale(3.6666666666667)"><rect width="6" height="6"/></g>
<g transform="translate(660,528) scale(3.6666666666667)"><rect width="6" height="6"/></g>
<g transform="translate(704,528) scale(3.6666666666667)"><rect width="6" height="6"/></g>
<g transform="translate(748,528) scale(3.6666666666667)"><rect width="6" height="6"/></g>
<g transform="translate(792,528) scale(3.6666666666667)"><rect width="6" height="6"/></g>
<g transform="translate(814,528) scale(3.6666666666667)"><rect width="6" height="6"/></g>
<g transform="translate(836,528) scale(3.6666666666667)"><rect width="6" height="6"/></g>
<g transform="translate(858,528) scale(3.6666666666667)"><rect width="6" height="6"/></g>
<g transform="translate(880,528) scale(3.6666666666667)"><rect width="6" height="6"/></g>
<g transform="translate(44,550) scale(3.6666666666667)"><rect width="6" height="6"/></g>
<g transform="translate(110,550) scale(3.6666666666667)"><rect width="6" height="6"/></g>
<g transform="translate(132,550) scale(3.6666666666667)"><rect width="6" height="6"/></g>
<g transform="translate(220,550) scale(3.6666666666667)"><rect width="6" height="6"/></g>
<g transform="translate(242,550) scale(3.6666666666667)"><rect width="6" height="6"/></g>
<g transform="translate(308,550) scale(3.6666666666667)"><rect width="6" height="6"/></g>
<g transform="translate(330,550) scale(3.6666666666667)"><rect width="6" height="6"/></g>
<g transform="translate(374,550) scale(3.6666666666667)"><rect width="6" height="6"/></g>
<g transform="translate(396,550) scale(3.6666666666667)"><rect width="6" height="6"/></g>
<g transform="translate(418,550) scale(3.6666666666667)"><rect width="6" height="6"/></g>
<g transform="translate(638,550) scale(3.6666666666667)"><rect width="6" height="6"/></g>
<g transform="translate(726,550) scale(3.6666666666667)"><rect width="6" height="6"/></g>
<g transform="translate(792,550) scale(3.6666666666667)"><rect width="6" height="6"/></g>
<g transform="translate(836,550) scale(3.6666666666667)"><rect width="6" height="6"/></g>
<g transform="translate(924,550) scale(3.6666666666667)"><rect width="6" height="6"/></g>
<g transform="translate(110,572) scale(3.6666666666667)"><rect width="6" height="6"/></g>
<g transform="translate(176,572) scale(3.6666666666667)"><rect width="6" height="6"/></g>
<g transform="translate(198,572) scale(3.6666666666667)"><rect width="6" height="6"/></g>
<g transform="translate(220,572) scale(3.6666666666667)"><rect width="6" height="6"/></g>
<g transform="translate(308,572) scale(3.6666666666667)"><rect width="6" height="6"/></g>
<g transform="translate(352,572) scale(3.6666666666667)"><rect width="6" height="6"/></g>
<g transform="translate(396,572) scale(3.6666666666667)"><rect width="6" height="6"/></g>
<g transform="translate(418,572) scale(3.6666666666667)"><rect width="6" height="6"/></g>
<g transform="translate(440,572) scale(3.6666666666667)"><rect width="6" height="6"/></g>
<g transform="translate(462,572) scale(3.6666666666667)"><rect width="6" height="6"/></g>
<g transform="translate(528,572) scale(3.6666666666667)"><rect width="6" height="6"/></g>
<g transform="translate(550,572) scale(3.6666666666667)"><rect width="6" height="6"/></g>
<g transform="translate(682,572) scale(3.6666666666667)"><rect width="6" height="6"/></g>
<g transform="translate(880,572) scale(3.6666666666667)"><rect width="6" height="6"/></g>
<g transform="translate(902,572) scale(3.6666666666667)"><rect width="6" height="6"/></g>
<g transform="translate(66,594) scale(3.6666666666667)"><rect width="6" height="6"/></g>
<g transform="translate(88,594) scale(3.6666666666667)"><rect width="6" height="6"/></g>
<g transform="translate(110,594) scale(3.6666666666667)"><rect width="6" height="6"/></g>
<g transform="translate(132,594) scale(3.6666666666667)"><rect width="6" height="6"/></g>
<g transform="translate(154,594) scale(3.6666666666667)"><rect width="6" height="6"/></g>
<g transform="translate(220,594) scale(3.6666666666667)"><rect width="6" height="6"/></g>
<g transform="translate(264,594) scale(3.6666666666667)"><rect width="6" height="6"/></g>
<g transform="translate(286,594) scale(3.6666666666667)"><rect width="6" height="6"/></g>
<g transform="translate(308,594) scale(3.6666666666667)"><rect width="6" height="6"/></g>
<g transform="translate(374,594) scale(3.6666666666667)"><rect width="6" height="6"/></g>
<g transform="translate(418,594) scale(3.6666666666667)"><rect width="6" height="6"/></g>
<g transform="translate(440,594) scale(3.6666666666667)"><rect width="6" height="6"/></g>
<g transform="translate(506,594) scale(3.6666666666667)"><rect width="6" height="6"/></g>
<g transform="translate(616,594) scale(3.6666666666667)"><rect width="6" height="6"/></g>
<g transform="translate(660,594) scale(3.6666666666667)"><rect width="6" height="6"/></g>
<g transform="translate(682,594) scale(3.6666666666667)"><rect width="6" height="6"/></g>
<g transform="translate(704,594) scale(3.6666666666667)"><rect width="6" height="6"/></g>
<g transform="translate(726,594) scale(3.6666666666667)"><rect width="6" height="6"/></g>
<g transform="translate(770,594) scale(3.6666666666667)"><rect width="6" height="6"/></g>
<g transform="translate(792,594) scale(3.6666666666667)"><rect width="6" height="6"/></g>
<g transform="translate(814,594) scale(3.6666666666667)"><rect width="6" height="6"/></g>
<g transform="translate(836,594) scale(3.6666666666667)"><rect width="6" height="6"/></g>
<g transform="translate(858,594) scale(3.6666666666667)"><rect width="6" height="6"/></g>
<g transform="translate(902,594) scale(3.6666666666667)"><rect width="6" height="6"/></g>
<g transform="translate(924,594) scale(3.6666666666667)"><rect width="6" height="6"/></g>
<g transform="translate(44,616) scale(3.6666666666667)"><rect width="6" height="6"/></g>
<g transform="translate(66,616) scale(3.6666666666667)"><rect width="6" height="6"/></g>
<g transform="translate(110,616) scale(3.6666666666667)"><rect width="6" height="6"/></g>
<g transform="translate(176,616) scale(3.6666666666667)"><rect width="6" height="6"/></g>
<g transform="translate(220,616) scale(3.6666666666667)"><rect width="6" height="6"/></g>
<g transform="translate(242,616) scale(3.6666666666667)"><rect width="6" height="6"/></g>
<g transform="translate(264,616) scale(3.6666666666667)"><rect width="6" height="6"/></g>
<g transform="translate(308,616) scale(3.6666666666667)"><rect width="6" height="6"/></g>
<g transform="translate(374,616) scale(3.6666666666667)"><rect width="6" height="6"/></g>
<g transform="translate(396,616) scale(3.6666666666667)"><rect width="6" height="6"/></g>
<g transform="translate(462,616) scale(3.6666666666667)"><rect width="6" height="6"/></g>
<g transform="translate(550,616) scale(3.6666666666667)"><rect width="6" height="6"/></g>
<g transform="translate(572,616) scale(3.6666666666667)"><rect width="6" height="6"/></g>
<g transform="translate(638,616) scale(3.6666666666667)"><rect width="6" height="6"/></g>
<g transform="translate(660,616) scale(3.6666666666667)"><rect width="6" height="6"/></g>
<g transform="translate(682,616) scale(3.6666666666667)"><rect width="6" height="6"/></g>
<g transform="translate(748,616) scale(3.6666666666667)"><rect width="6" height="6"/></g>
<g transform="translate(792,616) scale(3.6666666666667)"><rect width="6" height="6"/></g>
<g transform="translate(814,616) scale(3.6666666666667)"><rect width="6" height="6"/></g>
<g transform="translate(836,616) scale(3.6666666666667)"><rect width="6" height="6"/></g>
<g transform="translate(66,638) scale(3.6666666666667)"><rect width="6" height="6"/></g>
<g transform="translate(132,638) scale(3.6666666666667)"><rect width="6" height="6"/></g>
<g transform="translate(154,638) scale(3.6666666666667)"><rect width="6" height="6"/></g>
<g transform="translate(198,638) scale(3.6666666666667)"><rect width="6" height="6"/></g>
<g transform="translate(242,638) scale(3.6666666666667)"><rect width="6" height="6"/></g>
<g transform="translate(264,638) scale(3.6666666666667)"><rect width="6" height="6"/></g>
<g transform="translate(308,638) scale(3.6666666666667)"><rect width="6" height="6"/></g>
<g transform="translate(484,638) scale(3.6666666666667)"><rect width="6" height="6"/></g>
<g transform="translate(550,638) scale(3.6666666666667)"><rect width="6" height="6"/></g>
<g transform="translate(638,638) scale(3.6666666666667)"><rect width="6" height="6"/></g>
<g transform="translate(660,638) scale(3.6666666666667)"><rect width="6" height="6"/></g>
<g transform="translate(704,638) scale(3.6666666666667)"><rect width="6" height="6"/></g>
<g transform="translate(726,638) scale(3.6666666666667)"><rect width="6" height="6"/></g>
<g transform="translate(748,638) scale(3.6666666666667)"><rect width="6" height="6"/></g>
<g transform="translate(792,638) scale(3.6666666666667)"><rect width="6" height="6"/></g>
<g transform="translate(858,638) scale(3.6666666666667)"><rect width="6" height="6"/></g>
<g transform="translate(88,660) scale(3.6666666666667)"><rect width="6" height="6"/></g>
<g transform="translate(132,660) scale(3.6666666666667)"><rect width="6" height="6"/></g>
<g transform="translate(154,660) scale(3.6666666666667)"><rect width="6" height="6"/></g>
<g transform="translate(176,660) scale(3.6666666666667)"><rect width="6" height="6"/></g>
<g transform="translate(198,660) scale(3.6666666666667)"><rect width="6" height="6"/></g>
<g transform="translate(220,660) scale(3.6666666666667)"><rect width="6" height="6"/></g>
<g transform="translate(242,660) scale(3.6666666666667)"><rect width="6" height="6"/></g>
<g transform="translate(264,660) scale(3.6666666666667)"><rect width="6" height="6"/></g>
<g transform="translate(286,660) scale(3.6666666666667)"><rect width="6" height="6"/></g>
<g transform="translate(308,660) scale(3.6666666666667)"><rect width="6" height="6"/></g>
<g transform="translate(330,660) scale(3.6666666666667)"><rect width="6" height="6"/></g>
<g transform="translate(374,660) scale(3.6666666666667)"><rect width="6" height="6"/></g>
<g transform="translate(396,660) scale(3.6666666666667)"><rect width="6" height="6"/></g>
<g transform="translate(484,660) scale(3.6666666666667)"><rect width="6" height="6"/></g>
<g transform="translate(506,660) scale(3.6666666666667)"><rect width="6" height="6"/></g>
<g transform="translate(528,660) scale(3.6666666666667)"><rect width="6" height="6"/></g>
<g transform="translate(550,660) scale(3.6666666666667)"><rect width="6" height="6"/></g>
<g transform="translate(594,660) scale(3.6666666666667)"><rect width="6" height="6"/></g>
<g transform="translate(638,660) scale(3.6666666666667)"><rect width="6" height="6"/></g>
<g transform="translate(682,660) scale(3.6666666666667)"><rect width="6" height="6"/></g>
<g transform="translate(726,660) scale(3.6666666666667)"><rect width="6" height="6"/></g>
<g transform="translate(770,660) scale(3.6666666666667)"><rect width="6" height="6"/></g>
<g transform="translate(858,660) scale(3.6666666666667)"><rect width="6" height="6"/></g>
<g transform="translate(880,660) scale(3.6666666666667)"><rect width="6" height="6"/></g>
<g transform="translate(924,660) scale(3.6666666666667)"><rect width="6" height="6"/></g>
<g transform="translate(44,682) scale(3.6666666666667)"><rect width="6" height="6"/></g>
<g transform="translate(110,682) scale(3.6666666666667)"><rect width="6" height="6"/></g>
<g transform="translate(132,682) scale(3.6666666666667)"><rect width="6" height="6"/></g>
<g transform="translate(154,682) scale(3.6666666666667)"><rect width="6" height="6"/></g>
<g transform="translate(198,682) scale(3.6666666666667)"><rect width="6" height="6"/></g>
<g transform="translate(220,682) scale(3.6666666666667)"><rect width="6" height="6"/></g>
<g transform="translate(242,682) scale(3.6666666666667)"><rect width="6" height="6"/></g>
<g transform="translate(330,682) scale(3.6666666666667)"><rect width="6" height="6"/></g>
<g transform="translate(418,682) scale(3.6666666666667)"><rect width="6" height="6"/></g>
<g transform="translate(440,682) scale(3.6666666666667)"><rect width="6" height="6"/></g>
<g transform="translate(484,682) scale(3.6666666666667)"><rect width="6" height="6"/></g>
<g transform="translate(506,682) scale(3.6666666666667)"><rect width="6" height="6"/></g>
<g transform="translate(550,682) scale(3.6666666666667)"><rect width="6" height="6"/></g>
<g transform="translate(594,682) scale(3.6666666666667)"><rect width="6" height="6"/></g>
<g transform="translate(616,682) scale(3.6666666666667)"><rect width="6" height="6"/></g>
<g transform="translate(638,682) scale(3.6666666666667)"><rect width="6" height="6"/></g>
<g transform="translate(660,682) scale(3.6666666666667)"><rect width="6" height="6"/></g>
<g transform="translate(682,682) scale(3.6666666666667)"><rect width="6" height="6"/></g>
<g transform="translate(704,682) scale(3.6666666666667)"><rect width="6" height="6"/></g>
<g transform="translate(770,682) scale(3.6666666666667)"><rect width="6" height="6"/></g>
<g transform="translate(792,682) scale(3.6666666666667)"><rect width="6" height="6"/></g>
<g transform="translate(836,682) scale(3.6666666666667)"><rect width="6" height="6"/></g>
<g transform="translate(858,682) scale(3.6666666666667)"><rect width="6" height="6"/></g>
<g transform="translate(924,682) scale(3.6666666666667)"><rect width="6" height="6"/></g>
<g transform="translate(44,704) scale(3.6666666666667)"><rect width="6" height="6"/></g>
<g transform="translate(110,704) scale(3.6666666666667)"><rect width="6" height="6"/></g>
<g transform="translate(132,704) scale(3.6666666666667)"><rect width="6" height="6"/></g>
<g transform="translate(176,704) scale(3.6666666666667)"><rect width="6" height="6"/></g>
<g transform="translate(220,704) scale(3.6666666666667)"><rect width="6" height="6"/></g>
<g transform="translate(286,704) scale(3.6666666666667)"><rect width="6" height="6"/></g>
<g transform="translate(308,704) scale(3.6666666666667)"><rect width="6" height="6"/></g>
<g transform="translate(352,704) scale(3.6666666666667)"><rect width="6" height="6"/></g>
<g transform="translate(374,704) scale(3.6666666666667)"><rect width="6" height="6"/></g>
<g transform="translate(462,704) scale(3.6666666666667)"><rect width="6" height="6"/></g>
<g transform="translate(506,704) scale(3.6666666666667)"><rect width="6" height="6"/></g>
<g transform="translate(528,704) scale(3.6666666666667)"><rect width="6" height="6"/></g>
<g transform="translate(550,704) scale(3.6666666666667)"><rect width="6" height="6"/></g>
<g transform="translate(616,704) scale(3.6666666666667)"><rect width="6" height="6"/></g>
<g transform="translate(682,704) scale(3.6666666666667)"><rect width="6" height="6"/></g>
<g transform="translate(748,704) scale(3.6666666666667)"><rect width="6" height="6"/></g>
<g transform="translate(770,704) scale(3.6666666666667)"><rect width="6" height="6"/></g>
<g transform="translate(792,704) scale(3.6666666666667)"><rect width="6" height="6"/></g>
<g transform="translate(814,704) scale(3.6666666666667)"><rect width="6" height="6"/></g>
<g transform="translate(44,726) scale(3.6666666666667)"><rect width="6" height="6"/></g>
<g transform="translate(132,726) scale(3.6666666666667)"><rect width="6" height="6"/></g>
<g transform="translate(154,726) scale(3.6666666666667)"><rect width="6" height="6"/></g>
<g transform="translate(264,726) scale(3.6666666666667)"><rect width="6" height="6"/></g>
<g transform="translate(286,726) scale(3.6666666666667)"><rect width="6" height="6"/></g>
<g transform="translate(308,726) scale(3.6666666666667)"><rect width="6" height="6"/></g>
<g transform="translate(330,726) scale(3.6666666666667)"><rect width="6" height="6"/></g>
<g transform="translate(374,726) scale(3.6666666666667)"><rect width="6" height="6"/></g>
<g transform="translate(396,726) scale(3.6666666666667)"><rect width="6" height="6"/></g>
<g transform="translate(418,726) scale(3.6666666666667)"><rect width="6" height="6"/></g>
<g transform="translate(440,726) scale(3.6666666666667)"><rect width="6" height="6"/></g>
<g transform="translate(462,726) scale(3.6666666666667)"><rect width="6" height="6"/></g>
<g transform="translate(506,726) scale(3.6666666666667)"><rect width="6" height="6"/></g>
<g transform="translate(550,726) scale(3.6666666666667)"><rect width="6" height="6"/></g>
<g transform="translate(572,726) scale(3.6666666666667)"><rect width="6" height="6"/></g>
<g transform="translate(594,726) scale(3.6666666666667)"><rect width="6" height="6"/></g>
<g transform="translate(616,726) scale(3.6666666666667)"><rect width="6" height="6"/></g>
<g transform="translate(660,726) scale(3.6666666666667)"><rect width="6" height="6"/></g>
<g transform="translate(726,726) scale(3.6666666666667)"><rect width="6" height="6"/></g>
<g transform="translate(748,726) scale(3.6666666666667)"><rect width="6" height="6"/></g>
<g transform="translate(770,726) scale(3.6666666666667)"><rect width="6" height="6"/></g>
<g transform="translate(792,726) scale(3.6666666666667)"><rect width="6" height="6"/></g>
<g transform="translate(814,726) scale(3.6666666666667)"><rect width="6" height="6"/></g>
<g transform="translate(858,726) scale(3.6666666666667)"><rect width="6" height="6"/></g>
<g transform="translate(902,726) scale(3.6666666666667)"><rect width="6" height="6"/></g>
<g transform="translate(44,748) scale(3.6666666666667)"><rect width="6" height="6"/></g>
<g transform="translate(154,748) scale(3.6666666666667)"><rect width="6" height="6"/></g>
<g transform="translate(176,748) scale(3.6666666666667)"><rect width="6" height="6"/></g>
<g transform="translate(264,748) scale(3.6666666666667)"><rect width="6" height="6"/></g>
<g transform="translate(286,748) scale(3.6666666666667)"><rect width="6" height="6"/></g>
<g transform="translate(330,748) scale(3.6666666666667)"><rect width="6" height="6"/></g>
<g transform="translate(462,748) scale(3.6666666666667)"><rect width="6" height="6"/></g>
<g transform="translate(484,748) scale(3.6666666666667)"><rect width="6" height="6"/></g>
<g transform="translate(528,748) scale(3.6666666666667)"><rect width="6" height="6"/></g>
<g transform="translate(550,748) scale(3.6666666666667)"><rect width="6" height="6"/></g>
<g transform="translate(594,748) scale(3.6666666666667)"><rect width="6" height="6"/></g>
<g transform="translate(616,748) scale(3.6666666666667)"><rect width="6" height="6"/></g>
<g transform="translate(682,748) scale(3.6666666666667)"><rect width="6" height="6"/></g>
<g transform="translate(726,748) scale(3.6666666666667)"><rect width="6" height="6"/></g>
<g transform="translate(748,748) scale(3.6666666666667)"><rect width="6" height="6"/></g>
<g transform="translate(770,748) scale(3.6666666666667)"><rect width="6" height="6"/></g>
<g transform="translate(792,748) scale(3.6666666666667)"><rect width="6" height="6"/></g>
<g transform="translate(814,748) scale(3.6666666666667)"><rect width="6" height="6"/></g>
<g transform="translate(836,748) scale(3.6666666666667)"><rect width="6" height="6"/></g>
<g transform="translate(880,748) scale(3.6666666666667)"><rect width="6" height="6"/></g>
<g transform="translate(902,748) scale(3.6666666666667)"><rect width="6" height="6"/></g>
<g transform="translate(924,748) scale(3.6666666666667)"><rect width="6" height="6"/></g>
<g transform="translate(220,770) scale(3.6666666666667)"><rect width="6" height="6"/></g>
<g transform="translate(242,770) scale(3.6666666666667)"><rect width="6" height="6"/></g>
<g transform="translate(308,770) scale(3.6666666666667)"><rect width="6" height="6"/></g>
<g transform="translate(330,770) scale(3.6666666666667)"><rect width="6" height="6"/></g>
<g transform="translate(374,770) scale(3.6666666666667)"><rect width="6" height="6"/></g>
<g transform="translate(396,770) scale(3.6666666666667)"><rect width="6" height="6"/></g>
<g transform="translate(418,770) scale(3.6666666666667)"><rect width="6" height="6"/></g>
<g transform="translate(462,770) scale(3.6666666666667)"><rect width="6" height="6"/></g>
<g transform="translate(484,770) scale(3.6666666666667)"><rect width="6" height="6"/></g>
<g transform="translate(506,770) scale(3.6666666666667)"><rect width="6" height="6"/></g>
<g transform="translate(528,770) scale(3.6666666666667)"><rect width="6" height="6"/></g>
<g transform="translate(550,770) scale(3.6666666666667)"><rect width="6" height="6"/></g>
<g transform="translate(660,770) scale(3.6666666666667)"><rect width="6" height="6"/></g>
<g transform="translate(748,770) scale(3.6666666666667)"><rect width="6" height="6"/></g>
<g transform="translate(836,770) scale(3.6666666666667)"><rect width="6" height="6"/></g>
<g transform="translate(858,770) scale(3.6666666666667)"><rect width="6" height="6"/></g>
<g transform="translate(880,770) scale(3.6666666666667)"><rect width="6" height="6"/></g>
<g transform="translate(924,770) scale(3.6666666666667)"><rect width="6" height="6"/></g>
<g transform="translate(264,792) scale(3.6666666666667)"><rect width="6" height="6"/></g>
<g transform="translate(286,792) scale(3.6666666666667)"><rect width="6" height="6"/></g>
<g transform="translate(330,792) scale(3.6666666666667)"><rect width="6" height="6"/></g>
<g transform="translate(352,792) scale(3.6666666666667)"><rect width="6" height="6"/></g>
<g transform="translate(374,792) scale(3.6666666666667)"><rect width="6" height="6"/></g>
<g transform="translate(396,792) scale(3.6666666666667)"><rect width="6" height="6"/></g>
<g transform="translate(418,792) scale(3.6666666666667)"><rect width="6" height="6"/></g>
<g transform="translate(440,792) scale(3.6666666666667)"><rect width="6" height="6"/></g>
<g transform="translate(484,792) scale(3.6666666666667)"><rect width="6" height="6"/></g>
<g transform="translate(506,792) scale(3.6666666666667)"><rect width="6" height="6"/></g>
<g transform="translate(572,792) scale(3.6666666666667)"><rect width="6" height="6"/></g>
<g transform="translate(638,792) scale(3.6666666666667)"><rect width="6" height="6"/></g>
<g transform="translate(704,792) scale(3.6666666666667)"><rect width="6" height="6"/></g>
<g transform="translate(726,792) scale(3.6666666666667)"><rect width="6" height="6"/></g>
<g transform="translate(748,792) scale(3.6666666666667)"><rect width="6" height="6"/></g>
<g transform="translate(792,792) scale(3.6666666666667)"><rect width="6" height="6"/></g>
<g transform="translate(836,792) scale(3.6666666666667)"><rect width="6" height="6"/></g>
<g transform="translate(880,792) scale(3.6666666666667)"><rect width="6" height="6"/></g>
<g transform="translate(242,814) scale(3.6666666666667)"><rect width="6" height="6"/></g>
<g transform="translate(264,814) scale(3.6666666666667)"><rect width="6" height="6"/></g>
<g transform="translate(286,814) scale(3.6666666666667)"><rect width="6" height="6"/></g>
<g transform="translate(330,814) scale(3.6666666666667)"><rect width="6" height="6"/></g>
<g transform="translate(396,814) scale(3.6666666666667)"><rect width="6" height="6"/></g>
<g transform="translate(418,814) scale(3.6666666666667)"><rect width="6" height="6"/></g>
<g transform="translate(440,814) scale(3.6666666666667)"><rect width="6" height="6"/></g>
<g transform="translate(462,814) scale(3.6666666666667)"><rect width="6" height="6"/></g>
<g transform="translate(506,814) scale(3.6666666666667)"><rect width="6" height="6"/></g>
<g transform="translate(550,814) scale(3.6666666666667)"><rect width="6" height="6"/></g>
<g transform="translate(594,814) scale(3.6666666666667)"><rect width="6" height="6"/></g>
<g transform="translate(726,814) scale(3.6666666666667)"><rect width="6" height="6"/></g>
<g transform="translate(748,814) scale(3.6666666666667)"><rect width="6" height="6"/></g>
<g transform="translate(836,814) scale(3.6666666666667)"><rect width="6" height="6"/></g>
<g transform="translate(858,814) scale(3.6666666666667)"><rect width="6" height="6"/></g>
<g transform="translate(220,836) scale(3.6666666666667)"><rect width="6" height="6"/></g>
<g transform="translate(242,836) scale(3.6666666666667)"><rect width="6" height="6"/></g>
<g transform="translate(264,836) scale(3.6666666666667)"><rect width="6" height="6"/></g>
<g transform="translate(308,836) scale(3.6666666666667)"><rect width="6" height="6"/></g>
<g transform="translate(330,836) scale(3.6666666666667)"><rect width="6" height="6"/></g>
<g transform="translate(352,836) scale(3.6666666666667)"><rect width="6" height="6"/></g>
<g transform="translate(374,836) scale(3.6666666666667)"><rect width="6" height="6"/></g>
<g transform="translate(396,836) scale(3.6666666666667)"><rect width="6" height="6"/></g>
<g transform="translate(462,836) scale(3.6666666666667)"><rect width="6" height="6"/></g>
<g transform="translate(484,836) scale(3.6666666666667)"><rect width="6" height="6"/></g>
<g transform="translate(506,836) scale(3.6666666666667)"><rect width="6" height="6"/></g>
<g transform="translate(594,836) scale(3.6666666666667)"><rect width="6" height="6"/></g>
<g transform="translate(616,836) scale(3.6666666666667)"><rect width="6" height="6"/></g>
<g transform="translate(638,836) scale(3.6666666666667)"><rect width="6" height="6"/></g>
<g transform="translate(704,836) scale(3.6666666666667)"><rect width="6" height="6"/></g>
<g transform="translate(748,836) scale(3.6666666666667)"><rect width="6" height="6"/></g>
<g transform="translate(770,836) scale(3.6666666666667)"><rect width="6" height="6"/></g>
<g transform="translate(792,836) scale(3.6666666666667)"><rect width="6" height="6"/></g>
<g transform="translate(814,836) scale(3.6666666666667)"><rect width="6" height="6"/></g>
<g transform="translate(836,836) scale(3.6666666666667)"><rect width="6" height="6"/></g>
<g transform="translate(880,836) scale(3.6666666666667)"><rect width="6" height="6"/></g>
<g transform="translate(902,836) scale(3.6666666666667)"><rect width="6" height="6"/></g>
<g transform="translate(924,836) scale(3.6666666666667)"><rect width="6" height="6"/></g>
<g transform="translate(220,858) scale(3.6666666666667)"><rect width="6" height="6"/></g>
<g transform="translate(242,858) scale(3.6666666666667)"><rect width="6" height="6"/></g>
<g transform="translate(264,858) scale(3.6666666666667)"><rect width="6" height="6"/></g>
<g transform="translate(286,858) scale(3.6666666666667)"><rect width="6" height="6"/></g>
<g transform="translate(330,858) scale(3.6666666666667)"><rect width="6" height="6"/></g>
<g transform="translate(352,858) scale(3.6666666666667)"><rect width="6" height="6"/></g>
<g transform="translate(374,858) scale(3.6666666666667)"><rect width="6" height="6"/></g>
<g transform="translate(396,858) scale(3.6666666666667)"><rect width="6" height="6"/></g>
<g transform="translate(418,858) scale(3.6666666666667)"><rect width="6" height="6"/></g>
<g transform="translate(462,858) scale(3.6666666666667)"><rect width="6" height="6"/></g>
<g transform="translate(484,858) scale(3.6666666666667)"><rect width="6" height="6"/></g>
<g transform="translate(528,858) scale(3.6666666666667)"><rect width="6" height="6"/></g>
<g transform="translate(572,858) scale(3.6666666666667)"><rect width="6" height="6"/></g>
<g transform="translate(616,858) scale(3.6666666666667)"><rect width="6" height="6"/></g>
<g transform="translate(660,858) scale(3.6666666666667)"><rect width="6" height="6"/></g>
<g transform="translate(726,858) scale(3.6666666666667)"><rect width="6" height="6"/></g>
<g transform="translate(770,858) scale(3.6666666666667)"><rect width="6" height="6"/></g>
<g transform="translate(814,858) scale(3.6666666666667)"><rect width="6" height="6"/></g>
<g transform="translate(858,858) scale(3.6666666666667)"><rect width="6" height="6"/></g>
<g transform="translate(880,858) scale(3.6666666666667)"><rect width="6" height="6"/></g>
<g transform="translate(924,858) scale(3.6666666666667)"><rect width="6" height="6"/></g>
<g transform="translate(220,880) scale(3.6666666666667)"><rect width="6" height="6"/></g>
<g transform="translate(352,880) scale(3.6666666666667)"><rect width="6" height="6"/></g>
<g transform="translate(374,880) scale(3.6666666666667)"><rect width="6" height="6"/></g>
<g transform="translate(396,880) scale(3.6666666666667)"><rect width="6" height="6"/></g>
<g transform="translate(484,880) scale(3.6666666666667)"><rect width="6" height="6"/></g>
<g transform="translate(506,880) scale(3.6666666666667)"><rect width="6" height="6"/></g>
<g transform="translate(528,880) scale(3.6666666666667)"><rect width="6" height="6"/></g>
<g transform="translate(572,880) scale(3.6666666666667)"><rect width="6" height="6"/></g>
<g transform="translate(594,880) scale(3.6666666666667)"><rect width="6" height="6"/></g>
<g transform="translate(616,880) scale(3.6666666666667)"><rect width="6" height="6"/></g>
<g transform="translate(638,880) scale(3.6666666666667)"><rect width="6" height="6"/></g>
<g transform="translate(660,880) scale(3.6666666666667)"><rect width="6" height="6"/></g>
<g transform="translate(682,880) scale(3.6666666666667)"><rect width="6" height="6"/></g>
<g transform="translate(726,880) scale(3.6666666666667)"><rect width="6" height="6"/></g>
<g transform="translate(748,880) scale(3.6666666666667)"><rect width="6" height="6"/></g>
<g transform="translate(770,880) scale(3.6666666666667)"><rect width="6" height="6"/></g>
<g transform="translate(792,880) scale(3.6666666666667)"><rect width="6" height="6"/></g>
<g transform="translate(814,880) scale(3.6666666666667)"><rect width="6" height="6"/></g>
<g transform="translate(836,880) scale(3.6666666666667)"><rect width="6" height="6"/></g>
<g transform="translate(858,880) scale(3.6666666666667)"><rect width="6" height="6"/></g>
<g transform="translate(902,880) scale(3.6666666666667)"><rect width="6" height="6"/></g>
<g transform="translate(286,902) scale(3.6666666666667)"><rect width="6" height="6"/></g>
<g transform="translate(330,902) scale(3.6666666666667)"><rect width="6" height="6"/></g>
<g transform="translate(352,902) scale(3.6666666666667)"><rect width="6" height="6"/></g>
<g transform="translate(374,902) scale(3.6666666666667)"><rect width="6" height="6"/></g>
<g transform="translate(396,902) scale(3.6666666666667)"><rect width="6" height="6"/></g>
<g transform="translate(440,902) scale(3.6666666666667)"><rect width="6" height="6"/></g>
<g transform="translate(462,902) scale(3.6666666666667)"><rect width="6" height="6"/></g>
<g transform="translate(484,902) scale(3.6666666666667)"><rect width="6" height="6"/></g>
<g transform="translate(594,902) scale(3.6666666666667)"><rect width="6" height="6"/></g>
<g transform="translate(660,902) scale(3.6666666666667)"><rect width="6" height="6"/></g>
<g transform="translate(748,902) scale(3.6666666666667)"><rect width="6" height="6"/></g>
<g transform="translate(836,902) scale(3.6666666666667)"><rect width="6" height="6"/></g>
<g transform="translate(858,902) scale(3.6666666666667)"><rect width="6" height="6"/></g>
<g transform="translate(902,902) scale(3.6666666666667)"><rect width="6" height="6"/></g>
<g transform="translate(264,924) scale(3.6666666666667)"><rect width="6" height="6"/></g>
<g transform="translate(286,924) scale(3.6666666666667)"><rect width="6" height="6"/></g>
<g transform="translate(330,924) scale(3.6666666666667)"><rect width="6" height="6"/></g>
<g transform="translate(374,924) scale(3.6666666666667)"><rect width="6" height="6"/></g>
<g transform="translate(396,924) scale(3.6666666666667)"><rect width="6" height="6"/></g>
<g transform="translate(440,924) scale(3.6666666666667)"><rect width="6" height="6"/></g>
<g transform="translate(462,924) scale(3.6666666666667)"><rect width="6" height="6"/></g>
<g transform="translate(484,924) scale(3.6666666666667)"><rect width="6" height="6"/></g>
<g transform="translate(550,924) scale(3.6666666666667)"><rect width="6" height="6"/></g>
<g transform="translate(572,924) scale(3.6666666666667)"><rect width="6" height="6"/></g>
<g transform="translate(594,924) scale(3.6666666666667)"><rect width="6" height="6"/></g>
<g transform="translate(638,924) scale(3.6666666666667)"><rect width="6" height="6"/></g>
<g transform="translate(660,924) scale(3.6666666666667)"><rect width="6" height="6"/></g>
<g transform="translate(682,924) scale(3.6666666666667)"><rect width="6" height="6"/></g>
<g transform="translate(726,924) scale(3.6666666666667)"><rect width="6" height="6"/></g>
<g transform="translate(814,924) scale(3.6666666666667)"><rect width="6" height="6"/></g>
<g transform="translate(836,924) scale(3.6666666666667)"><rect width="6" height="6"/></g>
<g transform="translate(880,924) scale(3.6666666666667)"><rect width="6" height="6"/></g>
</g></mask></defs>
<rect x="0" y="0" width="990" height="990" mask="url(#qrmask)" fill="#FFFFFF" />
<g transform="translate(44,44)"  fill="#FFFFFF"><g transform="scale(11)"><path d="M0,0v14h14V0H0z M12,12H2V2h10V12z"/></g></g>
<g transform="translate(792,44)"  fill="#FFFFFF"><g transform="scale(11)"><path d="M0,0v14h14V0H0z M12,12H2V2h10V12z"/></g></g>
<g transform="translate(44,792)"  fill="#FFFFFF"><g transform="scale(11)"><path d="M0,0v14h14V0H0z M12,12H2V2h10V12z"/></g></g>
<g transform="translate(88,88)"  fill="#FFFFFF"><g transform="scale(11)"><path d="M3.2,0.3l0.6,1.3C4,1.8,4.1,1.9,4.3,1.9l1.4,0.2c0.2,0,0.3,0.3,0.2,0.5l-1,1C4.7,3.7,4.7,3.9,4.7,4.1L5,5.5 c0,0.2-0.2,0.4-0.4,0.3L3.3,5.2c-0.2-0.1-0.4-0.1-0.6,0L1.4,5.8C1.2,5.9,1,5.8,1,5.5l0.2-1.4c0-0.2,0-0.4-0.2-0.5l-1-1 C-0.1,2.4,0,2.2,0.2,2.1l1.4-0.2c0.2,0,0.4-0.2,0.5-0.3l0.6-1.3C2.9,0.1,3.1,0.1,3.2,0.3z"/></g></g>
<g transform="translate(836,88)"  fill="#FFFFFF"><g transform="scale(11)"><path d="M3.2,0.3l0.6,1.3C4,1.8,4.1,1.9,4.3,1.9l1.4,0.2c0.2,0,0.3,0.3,0.2,0.5l-1,1C4.7,3.7,4.7,3.9,4.7,4.1L5,5.5 c0,0.2-0.2,0.4-0.4,0.3L3.3,5.2c-0.2-0.1-0.4-0.1-0.6,0L1.4,5.8C1.2,5.9,1,5.8,1,5.5l0.2-1.4c0-0.2,0-0.4-0.2-0.5l-1-1 C-0.1,2.4,0,2.2,0.2,2.1l1.4-0.2c0.2,0,0.4-0.2,0.5-0.3l0.6-1.3C2.9,0.1,3.1,0.1,3.2,0.3z"/></g></g>
<g transform="translate(88,836)"  fill="#FFFFFF"><g transform="scale(11)"><path d="M3.2,0.3l0.6,1.3C4,1.8,4.1,1.9,4.3,1.9l1.4,0.2c0.2,0,0.3,0.3,0.2,0.5l-1,1C4.7,3.7,4.7,3.9,4.7,4.1L5,5.5 c0,0.2-0.2,0.4-0.4,0.3L3.3,5.2c-0.2-0.1-0.4-0.1-0.6,0L1.4,5.8C1.2,5.9,1,5.8,1,5.5l0.2-1.4c0-0.2,0-0.4-0.2-0.5l-1-1 C-0.1,2.4,0,2.2,0.2,2.1l1.4-0.2c0.2,0,0.4-0.2,0.5-0.3l0.6-1.3C2.9,0.1,3.1,0.1,3.2,0.3z"/></g></g>
</svg>